<?xml version="1.0" encoding="utf-8"?>
<!-- Generator: Adobe Illustrator 18.1.1, SVG Export Plug-In . SVG Version: 6.00 Build 0)  -->
<svg version="1.1" id="Layer_1" xmlns="http://www.w3.org/2000/svg" xmlns:xlink="http://www.w3.org/1999/xlink" x="0px" y="0px"
	 viewBox="0 0 887 834.4" enable-background="new 0 0 887 834.4" xml:space="preserve">
<rect y="0" width="887" height="834.4" opacity="0"/>
<path fill="#FFFFFF" d="M442.5,95.1c-177.9,0-322.1,144.2-322.1,322.1s144.2,322.1,322.1,322.1s322.1-144.2,322.1-322.1
	S620.4,95.1,442.5,95.1z M174.5,392.6C180,291.7,251.2,197.5,345.6,165c105.9-37.8,227.8-7.3,300.7,75.9l-2.2,2.2l-212.7-1
	c-61.7,1.9-118.2,40.2-147.5,95.5c-28,54-21.8,127.8,12.2,177.1C253.6,473.1,213.7,433.6,174.5,392.6z M526.3,361.1
	c-0.9-10.2-1.6-22.2,0.9-31.8c42.6,22.8,59,68.2,69.5,110.1c-4.6,21.3-9.5,44.1-24.3,60.2C566.5,449.7,558.8,399.7,526.3,361.1z
	 M562.9,515.1c-9.6,10.2-21.3,24.4-34.9,29.7l-1.5-3.7l-0.8-166.7l1.5-1.5C557.6,411.4,561.6,463.2,562.9,515.1z M525.7,318.8
	c1.2-10.8-2.8-21,0.6-31.2c13.9,6.2,23.5,16.7,34.9,28.4c21.3,26.8,36.8,58.6,36.5,94.7C584.4,373.7,561.8,339.8,525.7,318.8z
	 M493,388.6l-0.7-117c10.2,0.9,19.1,5.5,27.5,11.7l0.7,79.3l-0.4,188c-8,4.6-16.4,9-25.3,11.1l-1.5-4.3L493,395.1
	C492.9,392.1,493.1,390,493,388.6z M352.2,335.3c15.7,5.9,25.3,21,41.7,24.4c0.6,2.1-1.2,3.1-2.5,4.6c-8,1.8-16.7-4.3-22.8,2.2
	c-4.9,3.1-6.2,13.3-11.7,10.2c0-6.8,5.5-14.9-1-20.7c-2.8-4.3-8.3-4.3-11.7-1.5c-12,13-18.5,30.6-26.8,46c-0.6,4.9,3.7,8.9,7.4,10.5
	c2.5-0.3,6.5-2.1,8.3,0.6c0.6,5.9-5.9,10.5-1.5,16.4c-10.2,7.7,6.2,15.7-1.5,25.3c-4.3,5.3-4.3,13.3-2.8,19.7
	c1.2,4.9,5.6,8.9,10.2,10.5c28.7-4.3,63,7.1,86.1-12.7c9.6-14.5,2.1-37,6.4-53.4c2.8-10.5,2.8-22.5,8.9-31.8l3.1,1.5l13.9,23.7
	l-0.5,122.9c-1.8,12.9-1.2,27.5-9.5,37c-11.1,0.3-21.9-0.3-32.1-2.8c12.7-18.5,18.2-49.7,3.6-69.2c-14.8-6.4-34.3-3.1-50.9-2.7
	c-4,4.3,2.5,7.7,1.6,12.7c2.2,14.2,15.5,24,14.8,39.8l-0.9,8.9c-10.8-1.2-18.8-8.6-28.1-13.2c-46.6-31.4-72.3-86.4-67.4-145.3
	c4.9-59,49-113,105.8-129.7c12.7-5,26.5-7.4,41.3-7.4l2.2,5.3c3.4,38.3,18.6,71.6,49.8,96.2c2.2,18.5,2.2,40.4,0.1,57.7
	c-28.7-14.8-41.1-43.5-54.7-70c-6.2-19.7-10.8-40.4-14.2-61.7c-4.9-7.1-12.7,0.3-18.5,2.2c-20.4,7.7-28.1,27.8-46,40.2L352.2,335.3z
	 M440.4,263.3l1.5-1.6c13.3-0.3,26.2,0.6,37.7,5.2c2.2,28.1,5,56.5,6,83.6C455.9,331.9,445.7,296.7,440.4,263.3z M463.4,418.9
	l23.2,16.9c0.4,45.4,2.9,85.2-2.3,129c-7.1,3.1-15.1,4-23.5,4.3C464.7,521.7,461.6,468.6,463.4,418.9z M667.3,571.5
	c-61,89-168.4,131.3-276.7,112c-58-12.3-110.9-41.9-151.3-87.2v-2.1c77.2-1.3,150.3,2.6,227.5-0.8c69.7-9,132.3-63.7,148-132.9
	c12.9-51.5-1.3-102.8-29.1-142.9l127,123.7C709.8,488.7,692.9,532.9,667.3,571.5z"/>
</svg>
